<?xml version="1.0" encoding="iso-8859-1"?>
<!-- Generator: Adobe Illustrator 19.0.0, SVG Export Plug-In . SVG Version: 6.00 Build 0)  -->
<svg version="1.1" id="Capa_1" xmlns="http://www.w3.org/2000/svg" xmlns:xlink="http://www.w3.org/1999/xlink" x="0px" y="0px"
	 viewBox="0 0 319.6 319.6" style="enable-background:new 0 0 319.6 319.6;" xml:space="preserve">
<path d="M288,283.2c1.2,16.8-11.6,30.4-28.4,30.4H59.2c-16.8,0-29.6-13.6-28.4-30.4l13.6-182.4
	c1.2-16.8,16-30.4,32.8-30.4h163.6c16.8,0,31.6,13.6,32.8,30.4L288,283.2z"/>
<path d="M58,283.2l13.6-182.4c1.2-16.8,16-30.4,32.8-30.4H77.6C60.8,70.4,46,84,44.8,100.8L31.2,283.2
	C30,300,42.8,313.6,59.6,313.6h26.8C69.2,314,56.4,300,58,283.2z"/>
<path d="M294.4,282.8l-13.6-182.4c-1.6-20-19.2-36-39.2-36H230C226.4,28.4,196.4,0,159.6,0
	s-66.8,28.4-70,64.4H78c-20,0-37.6,16.4-39.2,36L25.2,282.8c-0.8,10,2.4,19.2,8.8,26c6.4,7.2,15.6,10.8,25.6,10.8H260
	c10,0,18.8-4,25.6-10.8C292,302,295.2,292.8,294.4,282.8z M159.6,12.4c30,0,54.8,22.8,58,52h-116C104.8,35.2,129.6,12.4,159.6,12.4z
	 M50.8,101.6C52,88,64,76.8,77.6,76.8h11.6V96c-5.6,2.4-9.6,8-9.6,14.4c0,8.8,7.2,16,16,16s16-7.2,16-16c0-6.4-4-12-9.6-14.4V76.8
	h116.4V96c-5.6,2.4-9.6,8-9.6,14.4c0,8.8,7.2,16,16,16s16-7.2,16-16c0-6.4-4-12-9.6-14.4V76.8h11.6c13.6,0,25.6,11.2,26.8,24.8
	L282,264.4H38.4L50.8,101.6z M276.4,300.8c-4,4.4-10,7.2-16.4,7.2H59.2c-6.4,0-12.4-2.4-16.4-7.2c-4-4.4-6.4-10.4-5.6-16.8l0.4-7.2
	h244l0.4,7.2C282.4,290,280.4,296,276.4,300.8z"/>
<g>
</g>
<g>
</g>
<g>
</g>
<g>
</g>
<g>
</g>
<g>
</g>
<g>
</g>
<g>
</g>
<g>
</g>
<g>
</g>
<g>
</g>
<g>
</g>
<g>
</g>
<g>
</g>
<g>
</g>
</svg>
